<mxfile host="65bd71144e">
    <diagram id="mTBae-tLOUn7j6t8g8UJ" name="Page-1">
        <mxGraphModel dx="974" dy="1669" grid="1" gridSize="10" guides="1" tooltips="1" connect="1" arrows="1" fold="1" page="1" pageScale="1" pageWidth="850" pageHeight="1100" math="0" shadow="0">
            <root>
                <mxCell id="0"/>
                <mxCell id="1" parent="0"/>
                <mxCell id="2" value="Chicken (Master Table)" style="swimlane;childLayout=stackLayout;resizeParent=1;resizeParentMax=0;startSize=20;" vertex="1" parent="1">
                    <mxGeometry x="40" y="-1040" width="640" height="60" as="geometry"/>
                </mxCell>
                <mxCell id="3" value="No. (Pk)" style="swimlane;startSize=20;" vertex="1" parent="2">
                    <mxGeometry y="20" width="80" height="40" as="geometry"/>
                </mxCell>
                <mxCell id="11" value="Code[20]" style="text;html=1;strokeColor=none;fillColor=none;align=center;verticalAlign=middle;whiteSpace=wrap;rounded=0;" vertex="1" parent="3">
                    <mxGeometry x="10" y="15" width="60" height="30" as="geometry"/>
                </mxCell>
                <mxCell id="4" value="Name" style="swimlane;startSize=20;" vertex="1" parent="2">
                    <mxGeometry x="80" y="20" width="80" height="40" as="geometry"/>
                </mxCell>
                <mxCell id="12" value="Text[100]" style="text;html=1;align=center;verticalAlign=middle;resizable=0;points=[];autosize=1;strokeColor=none;fillColor=none;" vertex="1" parent="4">
                    <mxGeometry x="10" y="20" width="60" height="20" as="geometry"/>
                </mxCell>
                <mxCell id="5" value="Chicken Type Code" style="swimlane;startSize=20;" vertex="1" parent="2">
                    <mxGeometry x="160" y="20" width="120" height="40" as="geometry"/>
                </mxCell>
                <mxCell id="6" value="Chicken Type Desc." style="swimlane;startSize=20;" vertex="1" parent="2">
                    <mxGeometry x="280" y="20" width="120" height="40" as="geometry"/>
                </mxCell>
                <mxCell id="14" value="Text[100]" style="text;html=1;align=center;verticalAlign=middle;resizable=0;points=[];autosize=1;strokeColor=none;fillColor=none;" vertex="1" parent="6">
                    <mxGeometry x="30" y="20" width="60" height="20" as="geometry"/>
                </mxCell>
                <mxCell id="7" value="Blocked" style="swimlane;startSize=20;" vertex="1" parent="2">
                    <mxGeometry x="400" y="20" width="80" height="40" as="geometry"/>
                </mxCell>
                <mxCell id="15" value="Boolean" style="text;html=1;align=center;verticalAlign=middle;resizable=0;points=[];autosize=1;strokeColor=none;fillColor=none;" vertex="1" parent="7">
                    <mxGeometry x="10" y="20" width="60" height="20" as="geometry"/>
                </mxCell>
                <mxCell id="8" value="Picture" style="swimlane;startSize=20;" vertex="1" parent="2">
                    <mxGeometry x="480" y="20" width="80" height="40" as="geometry"/>
                </mxCell>
                <mxCell id="9" value="Last Modified" style="swimlane;startSize=20;" vertex="1" parent="2">
                    <mxGeometry x="560" y="20" width="80" height="40" as="geometry"/>
                </mxCell>
                <mxCell id="16" value="MediaSet" style="text;html=1;align=center;verticalAlign=middle;resizable=0;points=[];autosize=1;strokeColor=none;fillColor=none;" vertex="1" parent="1">
                    <mxGeometry x="525" y="-1000" width="70" height="20" as="geometry"/>
                </mxCell>
                <mxCell id="17" value="Date" style="text;html=1;align=center;verticalAlign=middle;resizable=0;points=[];autosize=1;strokeColor=none;fillColor=none;" vertex="1" parent="1">
                    <mxGeometry x="620" y="-1000" width="40" height="20" as="geometry"/>
                </mxCell>
                <mxCell id="22" value="Chicken Type (Supplemental Table)" style="swimlane;childLayout=stackLayout;resizeParent=1;resizeParentMax=0;startSize=20;" vertex="1" parent="1">
                    <mxGeometry x="40" y="-920" width="240" height="60" as="geometry"/>
                </mxCell>
                <mxCell id="23" value="Code (Pk)" style="swimlane;startSize=20;" vertex="1" parent="22">
                    <mxGeometry y="20" width="120" height="40" as="geometry"/>
                </mxCell>
                <mxCell id="26" value="Code[20]" style="text;html=1;align=center;verticalAlign=middle;resizable=0;points=[];autosize=1;strokeColor=none;fillColor=none;" vertex="1" parent="23">
                    <mxGeometry x="30" y="20" width="60" height="20" as="geometry"/>
                </mxCell>
                <mxCell id="24" value="Description" style="swimlane;startSize=20;" vertex="1" parent="22">
                    <mxGeometry x="120" y="20" width="120" height="40" as="geometry"/>
                </mxCell>
                <mxCell id="27" value="Text[100]" style="text;html=1;align=center;verticalAlign=middle;resizable=0;points=[];autosize=1;strokeColor=none;fillColor=none;" vertex="1" parent="24">
                    <mxGeometry x="30" y="20" width="60" height="20" as="geometry"/>
                </mxCell>
                <mxCell id="29" value="" style="endArrow=classic;html=1;exitX=0.467;exitY=1.02;exitDx=0;exitDy=0;exitPerimeter=0;entryX=0.5;entryY=0;entryDx=0;entryDy=0;" edge="1" parent="1" source="13" target="22">
                    <mxGeometry width="50" height="50" relative="1" as="geometry">
                        <mxPoint x="450" y="-890" as="sourcePoint"/>
                        <mxPoint x="500" y="-940" as="targetPoint"/>
                        <Array as="points">
                            <mxPoint x="258" y="-960"/>
                            <mxPoint x="160" y="-960"/>
                        </Array>
                    </mxGeometry>
                </mxCell>
                <mxCell id="30" value="Egg Type (Supplemental Table)" style="swimlane;childLayout=stackLayout;resizeParent=1;resizeParentMax=0;startSize=20;" vertex="1" parent="1">
                    <mxGeometry x="560" y="-920" width="240" height="60" as="geometry"/>
                </mxCell>
                <mxCell id="31" value="Code (Pk)" style="swimlane;startSize=20;" vertex="1" parent="30">
                    <mxGeometry y="20" width="120" height="40" as="geometry"/>
                </mxCell>
                <mxCell id="34" value="Code[20]" style="text;html=1;align=center;verticalAlign=middle;resizable=0;points=[];autosize=1;strokeColor=none;fillColor=none;" vertex="1" parent="31">
                    <mxGeometry x="35" y="20" width="60" height="20" as="geometry"/>
                </mxCell>
                <mxCell id="32" value="Description" style="swimlane;startSize=20;" vertex="1" parent="30">
                    <mxGeometry x="120" y="20" width="120" height="40" as="geometry"/>
                </mxCell>
                <mxCell id="35" value="Text[100]" style="text;html=1;align=center;verticalAlign=middle;resizable=0;points=[];autosize=1;strokeColor=none;fillColor=none;" vertex="1" parent="32">
                    <mxGeometry x="30" y="20" width="60" height="20" as="geometry"/>
                </mxCell>
                <mxCell id="36" value="Egg Production Header (Supplemental Table)" style="swimlane;childLayout=stackLayout;resizeParent=1;resizeParentMax=0;startSize=20;" vertex="1" parent="1">
                    <mxGeometry x="40" y="-800" width="440" height="60" as="geometry"/>
                </mxCell>
                <mxCell id="37" value="No. (Pk)" style="swimlane;startSize=20;" vertex="1" parent="36">
                    <mxGeometry y="20" width="80" height="40" as="geometry"/>
                </mxCell>
                <mxCell id="40" value="Code[20]" style="text;html=1;align=center;verticalAlign=middle;resizable=0;points=[];autosize=1;strokeColor=none;fillColor=none;" vertex="1" parent="37">
                    <mxGeometry x="10" y="20" width="60" height="20" as="geometry"/>
                </mxCell>
                <mxCell id="38" value="Document No. (Pk)" style="swimlane;startSize=20;" vertex="1" parent="36">
                    <mxGeometry x="80" y="20" width="120" height="40" as="geometry"/>
                </mxCell>
                <mxCell id="41" value="Code[20]" style="text;html=1;align=center;verticalAlign=middle;resizable=0;points=[];autosize=1;strokeColor=none;fillColor=none;" vertex="1" parent="38">
                    <mxGeometry x="30" y="20" width="60" height="20" as="geometry"/>
                </mxCell>
                <mxCell id="39" value="Total Eggs Produced" style="swimlane;startSize=20;" vertex="1" parent="36">
                    <mxGeometry x="200" y="20" width="120" height="40" as="geometry"/>
                </mxCell>
                <mxCell id="42" value="Code[20]" style="text;html=1;align=center;verticalAlign=middle;resizable=0;points=[];autosize=1;strokeColor=none;fillColor=none;" vertex="1" parent="39">
                    <mxGeometry x="30" y="20" width="60" height="20" as="geometry"/>
                </mxCell>
                <mxCell id="45" value="Date" style="swimlane;startSize=20;" vertex="1" parent="36">
                    <mxGeometry x="320" y="20" width="120" height="40" as="geometry"/>
                </mxCell>
                <mxCell id="46" value="Code[20]" style="text;html=1;align=center;verticalAlign=middle;resizable=0;points=[];autosize=1;strokeColor=none;fillColor=none;" vertex="1" parent="45">
                    <mxGeometry x="30" y="20" width="60" height="20" as="geometry"/>
                </mxCell>
                <mxCell id="47" value="Egg Production Line (Subsidiary Table)" style="swimlane;childLayout=stackLayout;resizeParent=1;resizeParentMax=0;startSize=20;" vertex="1" parent="1">
                    <mxGeometry x="40" y="-680" width="520" height="60" as="geometry"/>
                </mxCell>
                <mxCell id="48" value="No. (Pk)" style="swimlane;startSize=20;" vertex="1" parent="47">
                    <mxGeometry y="20" width="120" height="40" as="geometry"/>
                </mxCell>
                <mxCell id="54" value="Code[20]" style="text;html=1;align=center;verticalAlign=middle;resizable=0;points=[];autosize=1;strokeColor=none;fillColor=none;" vertex="1" parent="48">
                    <mxGeometry x="30" y="20" width="60" height="20" as="geometry"/>
                </mxCell>
                <mxCell id="49" value="Chicken No." style="swimlane;startSize=20;" vertex="1" parent="47">
                    <mxGeometry x="120" y="20" width="120" height="40" as="geometry"/>
                </mxCell>
                <mxCell id="55" value="Code[20]" style="text;html=1;align=center;verticalAlign=middle;resizable=0;points=[];autosize=1;strokeColor=none;fillColor=none;" vertex="1" parent="49">
                    <mxGeometry x="30" y="20" width="60" height="20" as="geometry"/>
                </mxCell>
                <mxCell id="51" value="Egg Type" style="swimlane;startSize=20;" vertex="1" parent="47">
                    <mxGeometry x="240" y="20" width="120" height="40" as="geometry"/>
                </mxCell>
                <mxCell id="57" value="Code[20]" style="text;html=1;align=center;verticalAlign=middle;resizable=0;points=[];autosize=1;strokeColor=none;fillColor=none;" vertex="1" parent="51">
                    <mxGeometry x="30" y="20" width="60" height="20" as="geometry"/>
                </mxCell>
                <mxCell id="53" value="Amount Of Eggs Produced" style="swimlane;startSize=20;" vertex="1" parent="47">
                    <mxGeometry x="360" y="20" width="160" height="40" as="geometry"/>
                </mxCell>
                <mxCell id="58" value="Code[20]" style="text;html=1;align=center;verticalAlign=middle;resizable=0;points=[];autosize=1;strokeColor=none;fillColor=none;" vertex="1" parent="53">
                    <mxGeometry x="50" y="20" width="60" height="20" as="geometry"/>
                </mxCell>
                <mxCell id="13" value="Code[20]" style="text;html=1;align=center;verticalAlign=middle;resizable=0;points=[];autosize=1;strokeColor=none;fillColor=none;" vertex="1" parent="1">
                    <mxGeometry x="230" y="-1000" width="60" height="20" as="geometry"/>
                </mxCell>
                <mxCell id="63" value="" style="curved=1;endArrow=classic;html=1;exitX=0.467;exitY=1.14;exitDx=0;exitDy=0;exitPerimeter=0;entryX=0.342;entryY=-0.033;entryDx=0;entryDy=0;entryPerimeter=0;" edge="1" parent="1" source="13" target="47">
                    <mxGeometry width="50" height="50" relative="1" as="geometry">
                        <mxPoint x="450" y="-790" as="sourcePoint"/>
                        <mxPoint x="500" y="-840" as="targetPoint"/>
                        <Array as="points">
                            <mxPoint x="258" y="-960"/>
                            <mxPoint x="280" y="-960"/>
                            <mxPoint x="510" y="-960"/>
                            <mxPoint x="520" y="-960"/>
                            <mxPoint x="520" y="-720"/>
                            <mxPoint x="510" y="-720"/>
                            <mxPoint x="380" y="-720"/>
                            <mxPoint x="230" y="-720"/>
                            <mxPoint x="218" y="-720"/>
                        </Array>
                    </mxGeometry>
                </mxCell>
                <mxCell id="64" value="" style="curved=1;endArrow=classic;html=1;entryX=0.582;entryY=-0.047;entryDx=0;entryDy=0;entryPerimeter=0;" edge="1" parent="1" target="47">
                    <mxGeometry width="50" height="50" relative="1" as="geometry">
                        <mxPoint x="621" y="-860" as="sourcePoint"/>
                        <mxPoint x="500" y="-840" as="targetPoint"/>
                        <Array as="points">
                            <mxPoint x="621" y="-840"/>
                            <mxPoint x="610" y="-840"/>
                            <mxPoint x="570" y="-840"/>
                            <mxPoint x="560" y="-840"/>
                            <mxPoint x="560" y="-710"/>
                            <mxPoint x="560" y="-700"/>
                            <mxPoint x="360" y="-700"/>
                            <mxPoint x="343" y="-700"/>
                        </Array>
                    </mxGeometry>
                </mxCell>
                <mxCell id="65" value="" style="curved=1;endArrow=classic;html=1;exitX=0.52;exitY=0.98;exitDx=0;exitDy=0;exitPerimeter=0;entryX=0.465;entryY=-0.02;entryDx=0;entryDy=0;entryPerimeter=0;" edge="1" parent="1" source="41" target="47">
                    <mxGeometry width="50" height="50" relative="1" as="geometry">
                        <mxPoint x="450" y="-790" as="sourcePoint"/>
                        <mxPoint x="500" y="-840" as="targetPoint"/>
                        <Array as="points">
                            <mxPoint x="181" y="-710"/>
                            <mxPoint x="200" y="-710"/>
                            <mxPoint x="270" y="-710"/>
                            <mxPoint x="282" y="-710"/>
                        </Array>
                    </mxGeometry>
                </mxCell>
            </root>
        </mxGraphModel>
    </diagram>
</mxfile>